#N canvas -11 0 1364 1645 12;
#X obj 107 223 pack f f f;
#X msg 107 247 \$1 \, \$2 \$3;
#X obj 110 345 vline~;
#X obj 93 454 *~;
#X floatatom 401 401 5 0 0 0 - - - 0;
#X floatatom 167 168 5 0 0 0 - - - 0;
#X obj 82 533 outlet~;
#X obj 63 167 f;
#X obj 10 153 bng 19 250 50 0 empty empty empty 0 -10 0 12 #fcfcfc #000000 #000000;
#X obj 44 38 inlet;
#X obj 44 62 unpack f f f f;
#X obj 101 394 tabread4~ drop-sound;
#X connect 0 0 1 0;
#X connect 1 0 2 0;
#X connect 2 0 11 0;
#X connect 3 0 6 0;
#X connect 4 0 3 1;
#X connect 5 0 0 2;
#X connect 7 0 0 0;
#X connect 8 0 0 0;
#X connect 9 0 10 0;
#X connect 10 0 8 0;
#X connect 10 0 7 0;
#X connect 10 1 0 1;
#X connect 10 2 5 0;
#X connect 10 3 4 0;
#X connect 11 0 3 0;
