#N canvas 294 294 2736 1660 12;
#X obj 139 125 inlet;
#X obj 151 540 outlet~;
#X obj 298 358 *~;
#X obj 158 378 +~;
#X obj 298 298 osc~;
#X floatatom 144 241 5 0 0 0 - - - 0;
#X floatatom 271 241 5 0 0 0 - - - 0;
#X floatatom 369 241 5 0 0 0 - - - 0;
#X text 83 240 carrier;
#X text 197 241 modulation;
#X obj 159 481 *~;
#X obj 460 394 vline~;
#X msg 460 362 1 \$1 \, 0 \$2 \$1;
#X obj 466 229 pack f f;
#X obj 143 186 unpack f f f f f;
#X obj 158 422 osc~;
#X connect 0 0 14 0;
#X connect 2 0 3 1;
#X connect 3 0 15 0;
#X connect 4 0 2 0;
#X connect 5 0 3 0;
#X connect 6 0 4 0;
#X connect 7 0 2 1;
#X connect 10 0 1 0;
#X connect 11 0 10 1;
#X connect 12 0 11 0;
#X connect 13 0 12 0;
#X connect 14 0 5 0;
#X connect 14 1 6 0;
#X connect 14 2 7 0;
#X connect 14 3 13 0;
#X connect 14 4 13 1;
#X connect 15 0 10 0;
