#N canvas 378 39 1920 966 12;
#X obj 185 254 *;
#X obj 186 284 /;
#X floatatom 229 222 5 0 0 0 - ratio0 - 0;
#X floatatom 231 262 5 0 0 0 - ratio1 - 0;
#X floatatom 281 291 5 0 0 0 - dev - 0;
#X obj 931 176 bng 50 250 50 0 empty empty empty 0 -10 0 12 #ff0400 #000000 #000000;
#X text 267 222 ratio0;
#X text 268 263 ratio1;
#X text 321 290 dev;
#X obj 141 872 outlet~;
#X obj 286 602 *~;
#X obj 146 622 +~;
#X floatatom 132 485 5 0 0 0 - - - 0;
#X floatatom 259 485 5 0 0 0 - - - 0;
#X floatatom 395 505 5 0 0 0 - - - 0;
#X text 73 485 carrier;
#X text 185 485 modulation;
#X obj 928 128 loadbang;
#X obj 136 68 inlet;
#X obj 147 354 pack f f f;
#X obj 131 430 unpack f f f;
#X obj 286 541 osc~;
#X obj 146 666 osc~;
#X obj 143 144 mtof;
#X msg 930 241 \; ratio0 5 \; ratio1 7 \; dev 10 \; attack 50 \; decay 1500 \;;
#X text 929 155 bell;
#X connect 0 0 1 0;
#X connect 1 0 19 1;
#X connect 2 0 0 1;
#X connect 3 0 1 1;
#X connect 4 0 19 2;
#X connect 5 0 24 0;
#X connect 10 0 11 1;
#X connect 11 0 22 0;
#X connect 12 0 11 0;
#X connect 13 0 21 0;
#X connect 14 0 10 1;
#X connect 17 0 5 0;
#X connect 18 0 23 0;
#X connect 19 0 20 0;
#X connect 20 0 12 0;
#X connect 20 1 13 0;
#X connect 20 2 14 0;
#X connect 21 0 10 0;
#X connect 22 0 9 0;
#X connect 23 0 0 0;
#X connect 23 0 19 0;
