#N canvas -11 0 2736 1660 12;
#X declare -path abstractions;
#X floatatom 126 348 5 0 0 0 - - - 0;
#X floatatom 143 386 5 0 0 0 - - - 0;
#X floatatom 197 452 5 0 0 0 - - - 0;
#X floatatom 168 420 5 0 0 0 - - - 0;
#X obj 137 517 pack f f f f;
#X msg 137 541 next \$1 \$2 \$3 \$4;
#X text 74 347 start;
#X text 365 383 stop;
#X text 394 420 duration;
#X text 427 454 loudness;
#X obj 137 292 bng 19 250 50 0 empty empty empty 0 -10 0 12 #fcfcfc #000000 #000000;
#X obj 200 385 hsl 162 19 0 80000 0 0 empty empty empty -2 -10 0 12 #fcfcfc #000000 #000000 0 1;
#X obj 220 421 hsl 162 19 500 4000 0 0 empty empty empty -2 -10 0 12 #fcfcfc #000000 #000000 0 1;
#X obj 251 452 hsl 162 19 0 1 0 0 empty empty empty -2 -10 0 12 #fcfcfc #000000 #000000 0 1;
#X floatatom 184 226 5 0 0 0 - - - 0;
#X obj 128 247 metro;
#X obj 135 569 clone drop 100;
#X obj 135 628 dac~;
#X obj 12 5 declare -path abstractions;
#X connect 0 0 4 0;
#X connect 1 0 4 1;
#X connect 2 0 4 3;
#X connect 3 0 4 2;
#X connect 4 0 5 0;
#X connect 5 0 16 0;
#X connect 10 0 0 0;
#X connect 11 0 1 0;
#X connect 12 0 3 0;
#X connect 13 0 2 0;
#X connect 14 0 15 1;
#X connect 15 0 10 0;
#X connect 16 0 17 0;
