#N canvas 0 0 1924 1030 12;
#X obj 128 139 mtof;
#X obj 124 185 osc~;
#X floatatom 292 579 5 0 0 0 - - - 0;
#X obj 254 645 *~;
#X obj 159 76 inlet;
#X text 147 52 note number;
#X obj 491 197 inlet;
#X text 490 173 velocity;
#X obj 254 679 outlet~;
#X obj 265 480 *~;
#X obj 530 402 vline~;
#X floatatom 523 289 5 0 0 0 - - - 0;
#X msg 529 342 \$1 100;
#X obj 506 244 / 70;
#X floatatom 337 533 5 0 0 0 - volume - 0;
#X text 308 511 light / volume;
#X floatatom 375 213 5 0 0 0 - moisture - 0;
#X obj 282 195 noise~;
#X obj 249 273 *~;
#X obj 205 324 +~;
#X text 371 192 moisture;
#X floatatom 218 224 5 0 0 0 - temperature - 0;
#X obj 140 274 distortion~;
#X connect 0 0 1 0;
#X connect 1 0 22 0;
#X connect 2 0 3 1;
#X connect 3 0 8 0;
#X connect 4 0 0 0;
#X connect 6 0 13 0;
#X connect 9 0 3 0;
#X connect 10 0 9 1;
#X connect 11 0 12 0;
#X connect 12 0 10 0;
#X connect 13 0 11 0;
#X connect 14 0 2 0;
#X connect 16 0 18 1;
#X connect 17 0 18 0;
#X connect 18 0 19 1;
#X connect 19 0 9 0;
#X connect 21 0 22 1;
#X connect 22 0 19 0;
