#N canvas 0 0 1924 1030 12;
#X obj 558 359 marimba~;
#X floatatom 563 242 5 0 0 0 - - - 0;
#X floatatom 702 283 5 0 0 0 - - - 0;
#X obj 606 688 dac~;
#X obj 559 313 mtof;
#X obj 613 504 Distortion;
#X obj 567 169 notein 2;
#X connect 0 0 5 0;
#X connect 1 0 4 0;
#X connect 2 0 0 1;
#X connect 2 0 5 1;
#X connect 4 0 0 0;
#X connect 5 0 3 0;
#X connect 5 0 3 1;
#X connect 6 0 1 0;
#X connect 6 1 2 0;
