#N canvas 0 0 1924 1030 12;
#X obj 140 295 Distortion;
#X obj 135 379 dac~;
#X obj 149 78 notein 4;
#X obj 83 182 Brass;
#X connect 0 0 1 0;
#X connect 0 0 1 1;
#X connect 2 0 3 0;
#X connect 2 1 0 1;
#X connect 3 0 0 0;
