#N canvas 0 0 1924 1030 12;
#X obj 138 295 Distortion;
#X obj 133 379 dac~;
#X obj 147 78 notein 6;
#X obj 136 187 Bell;
#X connect 0 0 1 0;
#X connect 0 0 1 1;
#X connect 2 0 3 0;
#X connect 2 1 0 1;
#X connect 3 0 0 0;
