#N canvas -8 0 958 956 12;
#X obj 149 76 notein 1;
#X obj 146 480 dac~;
#X obj 138 358 Distortion;
#X obj 145 151 mtof;
#X obj 137 244 osc~;
#X connect 0 0 3 0;
#X connect 0 1 2 1;
#X connect 2 0 1 0;
#X connect 2 0 1 1;
#X connect 3 0 4 0;
#X connect 4 0 2 0;
