#N canvas 1357 0 1364 1645 12;
#X obj 83 350 scope~ 392 165 256 3 128 -1 1 0 0 0 0 205 229 232 74 79 77 96 98 102 0 empty;
#X obj 381 240 vline~;
#X msg 495 121 0 100;
#X msg 216 125 1 200 \, 0.8 200 200;
#X obj 219 67 bng 19 250 50 0 empty empty empty 0 -10 0 12 #fcfcfc #000000 #000000;
#X obj 487 45 bng 19 250 50 0 empty empty empty 0 -10 0 12 #fcfcfc #000000 #000000;
#X obj 903 231 mtof;
#X obj 908 151 notein 1;
#X obj 890 542 dac~;
#X obj 904 295 osc~;
#X floatatom 1022 442 5 0 0 0 - - - 0;
#X obj 984 508 *~;
#X obj 1106 304 loadbang;
#X obj 1106 328 pack 0.3;
#X obj 1026 321 bng 19 250 50 0 empty empty empty 0 -10 0 12 #fcfcfc #000000 #000000;
#X obj 1101 414 hsl 162 19 0 1 0 0 empty empty empty -2 -10 0 12 #fcfcfc #000000 #000000 0 1;
#X obj 639 75 bng 19 250 50 0 empty empty empty 0 -10 0 12 #fcfcfc #000000 #000000;
#X floatatom 692 136 5 0 0 0 - - - 0;
#X obj 783 94 hsl 162 19 0 1 0 0 empty empty empty -2 -10 0 12 #fcfcfc #000000 #000000 0 1;
#X msg 636 189 \$1 100;
#X connect 1 0 0 0;
#X connect 2 0 1 0;
#X connect 3 0 1 0;
#X connect 4 0 3 0;
#X connect 5 0 2 0;
#X connect 6 0 9 0;
#X connect 7 0 6 0;
#X connect 9 0 11 0;
#X connect 10 0 11 1;
#X connect 11 0 8 0;
#X connect 11 0 8 1;
#X connect 12 0 13 0;
#X connect 13 0 10 0;
#X connect 14 0 13 0;
#X connect 15 0 10 0;
#X connect 16 0 17 0;
#X connect 17 0 19 0;
#X connect 18 0 17 0;
#X connect 19 0 1 0;
