#N canvas -11 0 1364 1645 12;
#X declare -path abstractions;
#X floatatom 157 174 5 0 0 0 - - - 0;
#X obj 50 16 declare -path abstractions;
#X obj 152 445 clone FM_poly 16;
#X obj 163 203 mtof;
#X obj 185 254 *;
#X obj 186 284 /;
#X floatatom 229 222 5 0 0 0 - ratio0 - 0;
#X floatatom 231 262 5 0 0 0 - ratio1 - 0;
#X floatatom 281 291 5 0 0 0 - dev - 0;
#X floatatom 424 329 5 0 0 0 - decay - 0;
#X floatatom 379 306 5 0 0 0 - attack - 0;
#X obj 147 354 pack f f f f f;
#X msg 151 394 next \$1 \$2 \$3 \$4 \$5;
#X obj 848 57 bng 50 250 50 0 empty empty empty 0 -10 0 12 #ff0400 #000000 #000000;
#X text 267 222 ratio0;
#X text 268 263 ratio1;
#X text 321 290 dev;
#X text 420 307 attack;
#X msg 847 122 \; ratio0 1 \; ratio1 1 \; dev 100 \; attack 200 \; decay 600 \;;
#X text 846 36 brass;
#X obj 952 58 bng 50 250 50 0 empty bell empty 0 -10 0 12 #faff00 #000000 #000000;
#X msg 951 123 \; ratio0 5 \; ratio1 7 \; dev 10 \; attack 50 \; decay 1500 \;;
#X text 950 37 bell;
#X obj 1074 59 bng 50 250 50 0 empty drum empty 0 -10 0 12 #00ff04 #000000 #000000;
#X msg 1073 124 \; ratio0 16 \; ratio1 11 \; dev 25 \; attack 10 \; decay 190 \;;
#X text 1072 38 wood drum;
#X obj 1188 60 bng 50 250 50 0 empty empty empty 0 -10 0 12 #0400ff #000000 #000000;
#X msg 1187 125 \; ratio0 3 \; ratio1 2 \; dev 40 \; attack 100 \; decay 600 \;;
#X text 1186 39 clarinet;
#X floatatom 149 43 5 0 0 0 - midi - 0;
#X obj 159 744 dac~;
#X obj 688 98 loadbang;
#X msg 704 795 \; midi 60 \;;
#X obj 162 624 *~;
#X floatatom 243 598 5 0 0 0 - - - 0;
#X obj 239 518 loadbang;
#X obj 239 542 pack 0.3;
#X floatatom 386 499 5 0 0 0 - volume - 0;
#X connect 0 0 3 0;
#X connect 2 0 33 0;
#X connect 3 0 4 0;
#X connect 3 0 11 0;
#X connect 4 0 5 0;
#X connect 5 0 11 1;
#X connect 6 0 4 1;
#X connect 7 0 5 1;
#X connect 8 0 11 2;
#X connect 9 0 11 4;
#X connect 10 0 11 3;
#X connect 11 0 12 0;
#X connect 12 0 2 0;
#X connect 13 0 18 0;
#X connect 20 0 21 0;
#X connect 23 0 24 0;
#X connect 26 0 27 0;
#X connect 29 0 0 0;
#X connect 31 0 18 0;
#X connect 33 0 30 0;
#X connect 33 0 30 1;
#X connect 34 0 33 1;
#X connect 35 0 36 0;
#X connect 36 0 34 0;
#X connect 37 0 34 0;
